<svg width="24" height="25" viewBox="0 0 24 25" fill="none" xmlns="http://www.w3.org/2000/svg">
<path d="M18 12.5101C17.9951 11.984 17.7832 11.481 17.41 11.1101L13.12 6.81008C12.9326 6.62383 12.6792 6.51929 12.415 6.51929C12.1508 6.51929 11.8974 6.62383 11.71 6.81008C11.6163 6.90304 11.5419 7.01364 11.4911 7.1355C11.4403 7.25736 11.4142 7.38807 11.4142 7.52008C11.4142 7.65209 11.4403 7.7828 11.4911 7.90466C11.5419 8.02652 11.6163 8.13712 11.71 8.23008L15 11.5101H5C4.73478 11.5101 4.48043 11.6154 4.29289 11.803C4.10536 11.9905 4 12.2449 4 12.5101C4 12.7753 4.10536 13.0297 4.29289 13.2172C4.48043 13.4047 4.73478 13.5101 5 13.5101H15L11.71 16.8001C11.5217 16.9871 11.4154 17.2412 11.4144 17.5065C11.4135 17.7719 11.518 18.0268 11.705 18.2151C11.892 18.4034 12.1461 18.5097 12.4115 18.5106C12.6768 18.5116 12.9317 18.4071 13.12 18.2201L17.41 13.9201C17.7856 13.5467 17.9978 13.0397 18 12.5101Z" fill="#ECECEC"/>
</svg>
