<svg width="54" height="53" viewBox="0 0 54 53" fill="none" xmlns="http://www.w3.org/2000/svg">
<path fill-rule="evenodd" clip-rule="evenodd" d="M1.26758 26.5648C1.26758 12.2468 12.8747 0.639648 27.1928 0.639648C41.5109 0.639648 53.118 12.2468 53.118 26.5648C53.118 40.8829 41.5109 52.49 27.1928 52.49C12.8747 52.49 1.26758 40.8829 1.26758 26.5648Z" stroke="#063F5C"/>
<g clip-path="url(#clip0_227_6167)">
<path d="M27.9768 29.3116C27.7465 29.4556 27.4875 29.5131 27.2572 29.5131C27.027 29.5131 26.7679 29.4556 26.5377 29.3116L15.082 22.3174V31.6143C15.082 33.6003 16.6939 35.2122 18.6799 35.2122H35.8633C37.8494 35.2122 39.4612 33.6003 39.4612 31.6143V22.3174L27.9768 29.3116Z" fill="#063F5C"/>
<path d="M35.8634 17.2515H18.68C16.9818 17.2515 15.5427 18.4603 15.1973 20.0722L27.2861 27.4406L39.3462 20.0722C39.0008 18.4603 37.5616 17.2515 35.8634 17.2515Z" fill="#063F5C"/>
</g>
<defs>
<clipPath id="clip0_227_6167">
<rect width="24.3792" height="24.3792" fill="white" transform="translate(15.082 14.0422)"/>
</clipPath>
</defs>
</svg>
