<svg width="53" height="53" viewBox="0 0 53 53" fill="none" xmlns="http://www.w3.org/2000/svg">
<path fill-rule="evenodd" clip-rule="evenodd" d="M0.560547 26.5648C0.560547 12.2468 12.1677 0.639648 26.4857 0.639648C40.8038 0.639648 52.4109 12.2468 52.4109 26.5648C52.4109 40.8829 40.8038 52.49 26.4857 52.49C12.1677 52.49 0.560547 40.8829 0.560547 26.5648Z" stroke="#063F5C"/>
<g clip-path="url(#clip0_227_6176)">
<path d="M27.343 40.6887V27.8402H31.6539L32.3007 22.8315H27.343V19.6341C27.343 18.1844 27.7439 17.1965 29.8251 17.1965L32.4752 17.1954V12.7154C32.0169 12.6558 30.4437 12.5193 28.6127 12.5193C24.7893 12.5193 22.1717 14.8531 22.1717 19.1381V22.8315H17.8477V27.8402H22.1717V40.6887H27.343Z" fill="#063F5C"/>
</g>
<defs>
<clipPath id="clip0_227_6176">
<rect width="29.255" height="29.255" fill="white" transform="translate(12.1582 11.604)"/>
</clipPath>
</defs>
</svg>
