<svg width="24" height="25" viewBox="0 0 24 25" fill="none" xmlns="http://www.w3.org/2000/svg">
<g clip-path="url(#clip0_0_3604)">
<path d="M13.9336 11.9961C13.9336 13.0639 13.0678 13.9297 12 13.9297C10.9322 13.9297 10.0664 13.0639 10.0664 11.9961C10.0664 10.9283 10.9322 10.0625 12 10.0625C13.0678 10.0625 13.9336 10.9283 13.9336 11.9961Z" fill="white"/>
<path d="M15.2656 6.15234H8.73438C7.31271 6.15234 6.15625 7.30881 6.15625 8.73047V15.2617C6.15625 16.6834 7.31271 17.8398 8.73438 17.8398H15.2656C16.6873 17.8398 17.8438 16.6834 17.8438 15.2617V8.73047C17.8438 7.30881 16.6873 6.15234 15.2656 6.15234ZM12 15.2188C10.223 15.2188 8.77734 13.7731 8.77734 11.9961C8.77734 10.2191 10.223 8.77344 12 8.77344C13.777 8.77344 15.2227 10.2191 15.2227 11.9961C15.2227 13.7731 13.777 15.2188 12 15.2188ZM15.6953 8.94531C15.3393 8.94531 15.0508 8.65678 15.0508 8.30078C15.0508 7.94478 15.3393 7.65625 15.6953 7.65625C16.0513 7.65625 16.3398 7.94478 16.3398 8.30078C16.3398 8.65678 16.0513 8.94531 15.6953 8.94531Z" fill="white"/>
<path d="M17.1992 0.996094H6.80078C3.60229 0.996094 1 3.59839 1 6.79688V17.1953C1 20.3938 3.60229 22.9961 6.80078 22.9961H17.1992C20.3977 22.9961 23 20.3938 23 17.1953V6.79688C23 3.59839 20.3977 0.996094 17.1992 0.996094ZM19.1328 15.2617C19.1328 17.394 17.3979 19.1289 15.2656 19.1289H8.73438C6.60205 19.1289 4.86719 17.394 4.86719 15.2617V8.73047C4.86719 6.59814 6.60205 4.86328 8.73438 4.86328H15.2656C17.3979 4.86328 19.1328 6.59814 19.1328 8.73047V15.2617Z" fill="white"/>
</g>
<defs>
<clipPath id="clip0_0_3604">
<rect width="24" height="24" fill="white" transform="translate(0 0.328613)"/>
</clipPath>
</defs>
</svg>
