<svg width="8" height="15" viewBox="0 0 8 15" fill="none" xmlns="http://www.w3.org/2000/svg">
<path d="M7.62758 0.882833C7.86611 1.13166 8 1.46827 8 1.81912C8 2.16998 7.86611 2.50658 7.62758 2.75541L3.09391 7.52319L7.62758 12.2246C7.86611 12.4734 8 12.81 8 13.1609C8 13.5117 7.86611 13.8483 7.62758 14.0971C7.50852 14.2216 7.36688 14.3204 7.21081 14.3879C7.05475 14.4553 6.88735 14.49 6.71829 14.49C6.54922 14.49 6.38182 14.4553 6.22576 14.3879C6.06969 14.3204 5.92805 14.2216 5.80899 14.0971L0.378828 8.46612C0.25879 8.34266 0.163514 8.19578 0.0984945 8.03394C0.0334754 7.8721 0 7.69851 0 7.52319C0 7.34787 0.0334754 7.17428 0.0984945 7.01245C0.163514 6.85061 0.25879 6.70372 0.378828 6.58026L5.80899 0.882833C5.92805 0.758355 6.06969 0.659554 6.22576 0.59213C6.38182 0.524706 6.54922 0.48999 6.71829 0.48999C6.88735 0.48999 7.05475 0.524706 7.21081 0.59213C7.36688 0.659554 7.50852 0.758355 7.62758 0.882833Z" fill="#063F5C"/>
</svg>
