<svg width="52" height="53" viewBox="0 0 52 53" fill="none" xmlns="http://www.w3.org/2000/svg">
<path d="M51.5008 26.5648C51.5008 40.6068 40.1175 51.9901 26.0756 51.9901C12.0336 51.9901 0.650391 40.6068 0.650391 26.5648C0.650391 12.5229 12.0336 1.13965 26.0756 1.13965C40.1175 1.13965 51.5008 12.5229 51.5008 26.5648Z" stroke="#063F5C"/>
<g clip-path="url(#clip0_227_6181)">
<path fill-rule="evenodd" clip-rule="evenodd" d="M34.6741 17.932C32.4003 15.6555 29.3762 14.4012 26.1546 14.3999C19.5162 14.3999 14.1135 19.8025 14.1108 26.4427C14.1099 28.5654 14.6644 30.6375 15.7184 32.4639L14.0098 38.7048L20.3944 37.03C22.1536 37.9896 24.1342 38.4953 26.1497 38.4959H26.1548C32.7925 38.4959 38.1958 33.0929 38.1983 26.4524C38.1997 23.2342 36.9481 20.2084 34.6741 17.932ZM26.1546 36.4619H26.1505C24.3543 36.4612 22.5927 35.9785 21.0556 35.0666L20.6902 34.8496L16.9015 35.8435L17.9127 32.1496L17.6746 31.7708C16.6726 30.177 16.1434 28.3349 16.1443 26.4435C16.1464 20.9243 20.6371 16.434 26.1586 16.434C28.8324 16.4349 31.3458 17.4775 33.2357 19.3696C35.1257 21.2618 36.1659 23.7768 36.165 26.4516C36.1626 31.9712 31.6722 36.4619 26.1546 36.4619ZM31.6455 28.9647C31.3446 28.814 29.865 28.0862 29.5891 27.9857C29.3135 27.8852 29.1126 27.8352 28.9122 28.1364C28.7115 28.4375 28.1349 29.1154 27.9593 29.3162C27.7836 29.517 27.6083 29.5422 27.3073 29.3915C27.0063 29.2409 26.0367 28.923 24.8872 27.8978C23.9927 27.0999 23.3887 26.1144 23.2131 25.8133C23.0378 25.5118 23.2116 25.3647 23.3451 25.1991C23.6709 24.7946 23.9971 24.3705 24.0974 24.1698C24.1978 23.9689 24.1475 23.7931 24.0722 23.6425C23.9971 23.492 23.3953 22.0108 23.1446 21.408C22.9001 20.8215 22.6522 20.9007 22.4674 20.8915C22.292 20.8827 22.0913 20.881 21.8906 20.881C21.69 20.881 21.364 20.9562 21.0881 21.2576C20.8123 21.5589 20.035 22.2868 20.035 23.768C20.035 25.2493 21.1133 26.6802 21.2637 26.8811C21.4141 27.0819 23.3858 30.1215 26.4044 31.4249C27.1224 31.7352 27.6829 31.9202 28.1201 32.0589C28.841 32.288 29.4969 32.2556 30.0155 32.1782C30.5937 32.0917 31.7958 31.4501 32.0468 30.7472C32.2975 30.0442 32.2975 29.4418 32.2221 29.3162C32.147 29.1907 31.9463 29.1154 31.6455 28.9647Z" fill="#063F5C" stroke="#063F5C" stroke-width="0.5"/>
</g>
<defs>
<clipPath id="clip0_227_6181">
<rect width="25.9252" height="25.9252" fill="white" transform="translate(13.1133 13.6023)"/>
</clipPath>
</defs>
</svg>
