<svg width="24" height="25" viewBox="0 0 24 25" fill="none" xmlns="http://www.w3.org/2000/svg">
<path d="M18.6072 8.61741C18.3583 8.37888 18.0217 8.245 17.6709 8.245C17.32 8.245 16.9834 8.37888 16.7346 8.61741L11.9668 13.1511L7.26542 8.61741C7.01659 8.37888 6.67999 8.245 6.32913 8.245C5.97827 8.245 5.64167 8.37888 5.39284 8.61741C5.26836 8.73647 5.16956 8.87812 5.10214 9.03418C5.03471 9.19025 5 9.35764 5 9.52671C5 9.69578 5.03471 9.86317 5.10214 10.0192C5.16956 10.1753 5.26836 10.3169 5.39284 10.436L11.0239 15.8662C11.1473 15.9862 11.2942 16.0815 11.4561 16.1465C11.6179 16.2115 11.7915 16.245 11.9668 16.245C12.1421 16.245 12.3157 16.2115 12.4775 16.1465C12.6394 16.0815 12.7863 15.9862 12.9097 15.8662L18.6072 10.436C18.7316 10.3169 18.8304 10.1753 18.8979 10.0192C18.9653 9.86317 19 9.69578 19 9.52671C19 9.35764 18.9653 9.19025 18.8979 9.03418C18.8304 8.87812 18.7316 8.73647 18.6072 8.61741Z" fill="#063F5C"/>
</svg>
