<svg width="24" height="25" viewBox="0 0 24 25" fill="none" xmlns="http://www.w3.org/2000/svg">
<path d="M7.0001 11.4858H14.5901L11.2901 8.19578C11.1018 8.00748 10.996 7.75208 10.996 7.48578C10.996 7.21948 11.1018 6.96408 11.2901 6.77578C11.4784 6.58748 11.7338 6.48169 12.0001 6.48169C12.2664 6.48169 12.5218 6.58748 12.7101 6.77578L17.7101 11.7758C17.8011 11.8709 17.8725 11.983 17.9201 12.1058C18.0201 12.3492 18.0201 12.6223 17.9201 12.8658C17.8725 12.9885 17.8011 13.1007 17.7101 13.1958L12.7101 18.1958C12.6171 18.2895 12.5065 18.3639 12.3847 18.4147C12.2628 18.4654 12.1321 18.4916 12.0001 18.4916C11.8681 18.4916 11.7374 18.4654 11.6155 18.4147C11.4937 18.3639 11.3831 18.2895 11.2901 18.1958C11.1964 18.1028 11.122 17.9922 11.0712 17.8704C11.0204 17.7485 10.9943 17.6178 10.9943 17.4858C10.9943 17.3538 11.0204 17.2231 11.0712 17.1012C11.122 16.9793 11.1964 16.8687 11.2901 16.7758L14.5901 13.4858H7.0001C6.73489 13.4858 6.48053 13.3804 6.293 13.1929C6.10546 13.0054 6.0001 12.751 6.0001 12.4858C6.0001 12.2206 6.10546 11.9662 6.293 11.7787C6.48053 11.5911 6.73489 11.4858 7.0001 11.4858Z" fill="#063F5C"/>
</svg>
