<svg width="24" height="25" viewBox="0 0 24 25" fill="none" xmlns="http://www.w3.org/2000/svg">
<g clip-path="url(#clip0_0_10590)">
<path d="M20.7273 0.544922H3.27273C2.40475 0.544922 1.57232 0.889726 0.95856 1.50348C0.344804 2.11724 0 2.94967 0 3.81765L0 21.2722C0 22.1402 0.344804 22.9726 0.95856 23.5864C1.57232 24.2001 2.40475 24.5449 3.27273 24.5449H20.7273C21.5953 24.5449 22.4277 24.2001 23.0414 23.5864C23.6552 22.9726 24 22.1402 24 21.2722V3.81765C24 2.94967 23.6552 2.11724 23.0414 1.50348C22.4277 0.889726 21.5953 0.544922 20.7273 0.544922ZM8.18182 19.5376C8.182 19.6042 8.16904 19.6701 8.1437 19.7317C8.11836 19.7932 8.08112 19.8491 8.03412 19.8963C7.98713 19.9434 7.9313 19.9808 7.86983 20.0063C7.80836 20.0318 7.74246 20.0449 7.67591 20.0449H5.52C5.45333 20.0451 5.38729 20.0321 5.32566 20.0067C5.26404 19.9812 5.20804 19.9439 5.1609 19.8967C5.11376 19.8496 5.0764 19.7936 5.05097 19.732C5.02555 19.6704 5.01255 19.6043 5.01273 19.5376V10.4995C5.01273 10.3649 5.06617 10.2359 5.1613 10.1408C5.25644 10.0456 5.38546 9.9922 5.52 9.9922H7.67591C7.81021 9.99256 7.93889 10.0462 8.03372 10.1413C8.12856 10.2363 8.18182 10.3652 8.18182 10.4995V19.5376ZM6.59727 9.13583C6.19272 9.13583 5.79725 9.01587 5.46088 8.79111C5.12451 8.56635 4.86234 8.2469 4.70752 7.87314C4.5527 7.49938 4.5122 7.08811 4.59112 6.69133C4.67005 6.29455 4.86486 5.93008 5.15092 5.64402C5.43698 5.35796 5.80145 5.16315 6.19822 5.08422C6.595 5.0053 7.00628 5.04581 7.38003 5.20062C7.75379 5.35544 8.07325 5.61761 8.29801 5.95398C8.52276 6.29036 8.64273 6.68582 8.64273 7.09038C8.64273 7.63286 8.42723 8.15313 8.04363 8.53673C7.66003 8.92033 7.13976 9.13583 6.59727 9.13583ZM19.4509 19.5731C19.4511 19.6344 19.4391 19.6951 19.4158 19.7518C19.3924 19.8085 19.3581 19.8599 19.3147 19.9033C19.2714 19.9466 19.2199 19.981 19.1632 20.0043C19.1066 20.0277 19.0458 20.0396 18.9845 20.0395H16.6664C16.6051 20.0396 16.5443 20.0277 16.4877 20.0043C16.431 19.981 16.3795 19.9466 16.3362 19.9033C16.2929 19.8599 16.2585 19.8085 16.2351 19.7518C16.2118 19.6951 16.1998 19.6344 16.2 19.5731V15.339C16.2 14.7063 16.3855 12.5681 14.5459 12.5681C13.1209 12.5681 12.8305 14.0313 12.7732 14.6886V19.5786C12.7732 19.7011 12.725 19.8187 12.639 19.9059C12.553 19.9932 12.4361 20.0431 12.3136 20.0449H10.0745C10.0134 20.0449 9.95279 20.0329 9.89628 20.0094C9.83978 19.9859 9.78846 19.9516 9.74526 19.9082C9.70206 19.8649 9.66784 19.8135 9.64455 19.7569C9.62126 19.7003 9.60937 19.6397 9.60955 19.5786V10.4599C9.60937 10.3987 9.62126 10.3381 9.64455 10.2816C9.66784 10.225 9.70206 10.1736 9.74526 10.1302C9.78846 10.0869 9.83978 10.0525 9.89628 10.0291C9.95279 10.0056 10.0134 9.99356 10.0745 9.99356H12.3136C12.4373 9.99356 12.5559 10.0427 12.6434 10.1302C12.7309 10.2176 12.78 10.3362 12.78 10.4599V11.2481C13.3091 10.4531 14.0932 9.84219 15.7664 9.84219C19.4727 9.84219 19.4482 13.3031 19.4482 15.204L19.4509 19.5731Z" fill="#063F5C"/>
</g>
<defs>
<clipPath id="clip0_0_10590">
<rect width="24" height="24" fill="white" transform="translate(0 0.544922)"/>
</clipPath>
</defs>
</svg>
