<svg width="53" height="53" viewBox="0 0 53 53" fill="none" xmlns="http://www.w3.org/2000/svg">
<path fill-rule="evenodd" clip-rule="evenodd" d="M0.855469 26.4152C0.855469 12.0971 12.4626 0.48999 26.7807 0.48999C41.0988 0.48999 52.7059 12.0971 52.7059 26.4152C52.7059 40.7333 41.0988 52.3404 26.7807 52.3404C12.4626 52.3404 0.855469 40.7333 0.855469 26.4152Z" fill="#063F5C"/>
<path d="M38.1835 38.3084V29.7367C38.1835 25.524 37.2765 22.3059 32.3617 22.3059C29.992 22.3059 28.4123 23.5931 27.7687 24.8218H27.7101V22.6862H23.0586V38.3084H27.9149V30.5558C27.9149 28.508 28.2952 26.5479 30.8112 26.5479C33.2979 26.5479 33.3271 28.859 33.3271 30.6729V38.2792H38.1835V38.3084Z" fill="white"/>
<path d="M15.1602 22.686H20.0165V38.3082H15.1602V22.686Z" fill="white"/>
<path d="M17.5878 14.9043C16.0373 14.9043 14.7793 16.1623 14.7793 17.7128C14.7793 19.2633 16.0373 20.5505 17.5878 20.5505C19.1383 20.5505 20.3963 19.2633 20.3963 17.7128C20.3963 16.1623 19.1383 14.9043 17.5878 14.9043Z" fill="white"/>
</svg>
