<svg width="18" height="18" viewBox="0 0 18 18" fill="none" xmlns="http://www.w3.org/2000/svg">
<path d="M13.7971 10.9594C13.4589 10.6072 13.0508 10.4189 12.6184 10.4189C12.1894 10.4189 11.7779 10.6037 11.4256 10.956L10.3236 12.0545C10.2329 12.0057 10.1422 11.9604 10.0551 11.915C9.92951 11.8522 9.81093 11.793 9.7098 11.7302C8.6775 11.0745 7.73936 10.2201 6.83958 9.11456C6.40364 8.56353 6.11069 8.09969 5.89795 7.62888C6.18393 7.36732 6.44898 7.09529 6.70706 6.83373C6.80471 6.73608 6.90236 6.63494 7.00001 6.53729C7.73238 5.80491 7.73238 4.85631 7.00001 4.12394L6.04792 3.17185C5.9398 3.06374 5.8282 2.95214 5.72358 2.84054C5.51433 2.62431 5.29462 2.40111 5.06793 2.19186C4.72964 1.85706 4.32509 1.6792 3.89962 1.6792C3.47414 1.6792 3.06261 1.85706 2.71386 2.19186C2.71038 2.19535 2.71038 2.19535 2.70689 2.19884L1.52114 3.39505C1.07474 3.84145 0.820151 4.3855 0.764351 5.01674C0.68065 6.03509 0.980576 6.98369 1.21075 7.60447C1.77573 9.12851 2.6197 10.5409 3.87869 12.0545C5.40622 13.8785 7.24413 15.3188 9.34361 16.3337C10.1457 16.7138 11.2164 17.1637 12.4126 17.2404C12.4858 17.2439 12.5626 17.2474 12.6323 17.2474C13.4379 17.2474 14.1145 16.958 14.6446 16.3825C14.6481 16.3755 14.6551 16.3721 14.6586 16.3651C14.8399 16.1454 15.0492 15.9466 15.2689 15.7338C15.4188 15.5908 15.5723 15.4409 15.7222 15.2839C16.0675 14.9247 16.2489 14.5062 16.2489 14.0773C16.2489 13.6448 16.064 13.2298 15.7118 12.8811L13.7971 10.9594ZM15.0457 14.6318C15.0422 14.6318 15.0422 14.6353 15.0457 14.6318C14.9097 14.7783 14.7702 14.9108 14.6202 15.0573C14.3935 15.2735 14.1633 15.5002 13.9471 15.7548C13.5949 16.1314 13.1799 16.3093 12.6358 16.3093C12.5835 16.3093 12.5277 16.3093 12.4754 16.3058C11.4396 16.2395 10.477 15.835 9.75513 15.4897C7.78121 14.5341 6.04792 13.1775 4.60758 11.4582C3.41834 10.0248 2.62319 8.69954 2.09658 7.27664C1.77224 6.40825 1.65366 5.73168 1.70598 5.09346C1.74085 4.68543 1.89779 4.34714 2.18725 4.05768L3.37649 2.86844C3.54738 2.70801 3.72873 2.62082 3.90659 2.62082C4.1263 2.62082 4.30417 2.75335 4.41577 2.86495C4.41925 2.86844 4.42274 2.87193 4.42623 2.87541C4.63897 3.0742 4.84124 3.27996 5.05398 3.49968C5.16209 3.61128 5.27369 3.72288 5.38529 3.83796L6.33738 4.79005C6.70706 5.15973 6.70706 5.5015 6.33738 5.87118C6.23624 5.97232 6.13859 6.07345 6.03745 6.1711C5.7445 6.47103 5.4655 6.75003 5.16209 7.02205C5.15512 7.02903 5.14814 7.03252 5.14465 7.03949C4.84473 7.33942 4.90053 7.63237 4.9633 7.83115C4.96679 7.84162 4.97028 7.85208 4.97377 7.86254C5.22138 8.46239 5.57013 9.02737 6.10023 9.70046L6.10372 9.70394C7.06627 10.8897 8.08113 11.8139 9.20062 12.5218C9.34361 12.6125 9.49008 12.6858 9.62958 12.7555C9.75513 12.8183 9.87371 12.8776 9.97484 12.9403C9.9888 12.9473 10.0027 12.9578 10.0167 12.9648C10.1353 13.024 10.2469 13.0519 10.362 13.0519C10.6514 13.0519 10.8328 12.8706 10.8921 12.8113L12.0848 11.6186C12.2034 11.5 12.3917 11.357 12.6114 11.357C12.8276 11.357 13.0055 11.493 13.1136 11.6116C13.1171 11.6151 13.1171 11.6151 13.1206 11.6186L15.0422 13.5402C15.4014 13.8959 15.4014 14.2621 15.0457 14.6318Z" fill="white"/>
<path d="M15.0457 14.6318C15.0422 14.6318 15.0422 14.6353 15.0457 14.6318ZM15.0457 14.6318C14.9097 14.7783 14.7702 14.9108 14.6202 15.0573C14.3935 15.2735 14.1633 15.5002 13.9471 15.7548C13.5949 16.1314 13.1799 16.3093 12.6358 16.3093C12.5835 16.3093 12.5277 16.3093 12.4754 16.3058C11.4396 16.2395 10.477 15.835 9.75513 15.4897C7.78121 14.5341 6.04792 13.1775 4.60758 11.4582C3.41834 10.0248 2.62319 8.69954 2.09658 7.27664C1.77224 6.40825 1.65366 5.73168 1.70598 5.09346C1.74085 4.68543 1.89779 4.34714 2.18725 4.05768L3.37649 2.86844C3.54738 2.70801 3.72873 2.62083 3.90659 2.62083C4.1263 2.62083 4.30417 2.75335 4.41577 2.86495C4.41925 2.86844 4.42274 2.87193 4.42623 2.87541C4.63897 3.0742 4.84124 3.27996 5.05398 3.49968C5.16209 3.61128 5.27369 3.72288 5.38529 3.83796L6.33738 4.79005C6.70706 5.15973 6.70706 5.5015 6.33738 5.87118C6.23624 5.97232 6.13859 6.07345 6.03745 6.1711C5.7445 6.47103 5.4655 6.75003 5.16209 7.02205C5.15512 7.02903 5.14814 7.03252 5.14465 7.03949C4.84473 7.33942 4.90053 7.63237 4.9633 7.83115C4.96679 7.84162 4.97028 7.85208 4.97377 7.86254C5.22138 8.46239 5.57013 9.02737 6.10023 9.70046L6.10372 9.70394C7.06627 10.8897 8.08113 11.8139 9.20062 12.5218C9.34361 12.6125 9.49008 12.6858 9.62958 12.7555C9.75513 12.8183 9.87371 12.8776 9.97485 12.9403C9.9888 12.9473 10.0027 12.9578 10.0167 12.9648C10.1353 13.024 10.2469 13.0519 10.362 13.0519C10.6514 13.0519 10.8328 12.8706 10.8921 12.8113L12.0848 11.6186C12.2034 11.5 12.3917 11.357 12.6114 11.357C12.8276 11.357 13.0055 11.493 13.1136 11.6116C13.1171 11.6151 13.1171 11.6151 13.1206 11.6186L15.0422 13.5402C15.4014 13.8959 15.4014 14.2621 15.0457 14.6318ZM13.7971 10.9594C13.4589 10.6072 13.0508 10.4189 12.6184 10.4189C12.1894 10.4189 11.7779 10.6037 11.4256 10.956L10.3236 12.0545C10.2329 12.0057 10.1422 11.9604 10.0551 11.915C9.92951 11.8522 9.81093 11.793 9.7098 11.7302C8.67749 11.0745 7.73936 10.2201 6.83958 9.11456C6.40364 8.56353 6.11069 8.09969 5.89795 7.62888C6.18393 7.36732 6.44898 7.09529 6.70706 6.83373C6.80471 6.73608 6.90236 6.63494 7.00001 6.53729C7.73238 5.80492 7.73238 4.85631 7.00001 4.12394L6.04792 3.17185C5.9398 3.06374 5.8282 2.95214 5.72358 2.84054C5.51433 2.62431 5.29462 2.40111 5.06793 2.19186C4.72964 1.85706 4.32509 1.6792 3.89962 1.6792C3.47414 1.6792 3.06261 1.85706 2.71386 2.19186C2.71038 2.19535 2.71038 2.19535 2.70689 2.19884L1.52114 3.39505C1.07474 3.84145 0.820151 4.3855 0.764351 5.01674C0.68065 6.03509 0.980576 6.98369 1.21075 7.60447C1.77573 9.12851 2.6197 10.5409 3.87869 12.0545C5.40622 13.8785 7.24413 15.3188 9.34361 16.3337C10.1457 16.7138 11.2164 17.1637 12.4126 17.2404C12.4858 17.2439 12.5626 17.2474 12.6323 17.2474C13.4379 17.2474 14.1145 16.958 14.6446 16.3825C14.6481 16.3755 14.6551 16.3721 14.6586 16.3651C14.8399 16.1454 15.0492 15.9466 15.2689 15.7338C15.4188 15.5908 15.5723 15.4409 15.7223 15.2839C16.0675 14.9247 16.2489 14.5062 16.2489 14.0773C16.2489 13.6448 16.064 13.2298 15.7118 12.8811L13.7971 10.9594Z" stroke="white" stroke-width="0.6"/>
<path d="M9.66781 4.65419C10.5815 4.80764 11.4116 5.24009 12.0742 5.90272C12.7368 6.56535 13.1658 7.39537 13.3227 8.3091C13.3611 8.53927 13.5599 8.6997 13.7866 8.6997C13.8145 8.6997 13.8389 8.69621 13.8668 8.69272C14.1248 8.65087 14.2957 8.40675 14.2539 8.14867C14.0656 7.04313 13.5424 6.03525 12.7438 5.23661C11.9452 4.43797 10.9373 3.91484 9.83173 3.72652C9.57365 3.68467 9.33301 3.85556 9.28767 4.11014C9.24234 4.36473 9.40974 4.61234 9.66781 4.65419Z" fill="white" stroke="white" stroke-width="0.6"/>
<path d="M17.2428 8.01272C16.9324 6.19224 16.0745 4.53568 14.7562 3.2174C13.438 1.89912 11.7814 1.0412 9.96093 0.730811C9.70634 0.685473 9.4657 0.859848 9.42036 1.11444C9.37851 1.37251 9.5494 1.61315 9.80748 1.65849C11.4327 1.934 12.9148 2.70474 14.0936 3.88003C15.2724 5.0588 16.0396 6.54099 16.3152 8.16617C16.3535 8.39634 16.5523 8.55677 16.779 8.55677C16.8069 8.55677 16.8313 8.55328 16.8592 8.54979C17.1138 8.51143 17.2882 8.2673 17.2428 8.01272Z" fill="white" stroke="white" stroke-width="0.6"/>
</svg>
