<svg width="22" height="23" viewBox="0 0 22 23" fill="none" xmlns="http://www.w3.org/2000/svg">
<path d="M19 0.328613H3C2.20435 0.328613 1.44129 0.644684 0.87868 1.20729C0.31607 1.7699 0 2.53296 0 3.32861L0 19.3286C0 20.1243 0.31607 20.8873 0.87868 21.4499C1.44129 22.0125 2.20435 22.3286 3 22.3286H19C19.7956 22.3286 20.5587 22.0125 21.1213 21.4499C21.6839 20.8873 22 20.1243 22 19.3286V3.32861C22 2.53296 21.6839 1.7699 21.1213 1.20729C20.5587 0.644684 19.7956 0.328613 19 0.328613ZM7.5 17.7386C7.50016 17.7996 7.48829 17.8601 7.46506 17.9165C7.44183 17.9729 7.40769 18.0241 7.36461 18.0673C7.32153 18.1105 7.27036 18.1448 7.21401 18.1682C7.15766 18.1916 7.09726 18.2036 7.03625 18.2036H5.06C4.99889 18.2038 4.93835 18.1919 4.88186 18.1686C4.82537 18.1452 4.77404 18.111 4.73083 18.0678C4.68762 18.0246 4.65337 17.9732 4.63006 17.9168C4.60675 17.8603 4.59483 17.7997 4.595 17.7386V9.45361C4.595 9.33029 4.64399 9.21201 4.7312 9.12481C4.8184 9.0376 4.93667 8.98861 5.06 8.98861H7.03625C7.15936 8.98894 7.27731 9.03808 7.36425 9.12525C7.45118 9.21242 7.5 9.3305 7.5 9.45361V17.7386ZM6.0475 8.20361C5.67666 8.20361 5.31415 8.09365 5.00581 7.88762C4.69746 7.68159 4.45714 7.38876 4.31523 7.04614C4.17331 6.70353 4.13618 6.32653 4.20853 5.96282C4.28087 5.5991 4.45945 5.26501 4.72167 5.00279C4.9839 4.74056 5.31799 4.56199 5.68171 4.48964C6.04542 4.41729 6.42242 4.45442 6.76503 4.59634C7.10764 4.73825 7.40048 4.97858 7.60651 5.28692C7.81253 5.59526 7.9225 5.95777 7.9225 6.32861C7.9225 6.82589 7.72496 7.30281 7.37333 7.65444C7.02169 8.00607 6.54478 8.20361 6.0475 8.20361ZM17.83 17.7711C17.8302 17.8273 17.8192 17.883 17.7978 17.9349C17.7764 17.9868 17.7449 18.034 17.7052 18.0738C17.6654 18.1135 17.6182 18.145 17.5663 18.1664C17.5144 18.1878 17.4587 18.1988 17.4025 18.1986H15.2775C15.2213 18.1988 15.1656 18.1878 15.1137 18.1664C15.0618 18.145 15.0146 18.1135 14.9748 18.0738C14.9351 18.034 14.9036 17.9868 14.8822 17.9349C14.8608 17.883 14.8498 17.8273 14.85 17.7711V13.8899C14.85 13.3099 15.02 11.3499 13.3337 11.3499C12.0275 11.3499 11.7612 12.6911 11.7087 13.2936V17.7761C11.7088 17.8884 11.6646 17.9962 11.5858 18.0762C11.5069 18.1562 11.3998 18.202 11.2875 18.2036H9.235C9.17892 18.2036 9.12339 18.1925 9.07159 18.171C9.0198 18.1495 8.97275 18.118 8.93315 18.0783C8.89356 18.0386 8.86218 17.9915 8.84084 17.9396C8.81949 17.8878 8.80859 17.8322 8.80875 17.7761V9.41736C8.80859 9.36128 8.81949 9.30572 8.84084 9.25386C8.86218 9.202 8.89356 9.15486 8.93315 9.11515C8.97275 9.07544 9.0198 9.04393 9.07159 9.02243C9.12339 9.00093 9.17892 8.98986 9.235 8.98986H11.2875C11.4009 8.98986 11.5096 9.0349 11.5898 9.11508C11.67 9.19525 11.715 9.30398 11.715 9.41736V10.1399C12.2 9.41111 12.9188 8.85111 14.4525 8.85111C17.85 8.85111 17.8275 12.0236 17.8275 13.7661L17.83 17.7711Z" fill="white"/>
</svg>
