<svg width="18" height="19" viewBox="0 0 18 19" fill="none" xmlns="http://www.w3.org/2000/svg">
<path d="M10.5 9.61812H12.315C12.4137 9.61869 12.5116 9.59977 12.6029 9.56245C12.6943 9.52512 12.7774 9.47013 12.8475 9.40062L16.2825 5.96562C16.3528 5.8959 16.4086 5.81295 16.4467 5.72155C16.4847 5.63016 16.5043 5.53213 16.5043 5.43312C16.5043 5.33411 16.4847 5.23608 16.4467 5.14469C16.4086 5.05329 16.3528 4.97034 16.2825 4.90062L14.4675 3.08562C14.3978 3.01532 14.3148 2.95953 14.2234 2.92145C14.132 2.88337 14.034 2.86377 13.935 2.86377C13.836 2.86377 13.738 2.88337 13.6466 2.92145C13.5552 2.95953 13.4722 3.01532 13.4025 3.08562L9.9675 6.52062C9.83045 6.66434 9.75276 6.85454 9.75 7.05312V8.86812C9.75 9.06703 9.82902 9.2578 9.96967 9.39845C10.1103 9.5391 10.3011 9.61812 10.5 9.61812ZM11.25 7.36812L13.935 4.68312L14.685 5.43312L12 8.11812H11.25V7.36812ZM15.75 8.86812C15.5511 8.86812 15.3603 8.94714 15.2197 9.08779C15.079 9.22844 15 9.41921 15 9.61812V14.8681C15 15.067 14.921 15.2578 14.7803 15.3984C14.6397 15.5391 14.4489 15.6181 14.25 15.6181H3.75C3.55109 15.6181 3.36032 15.5391 3.21967 15.3984C3.07902 15.2578 3 15.067 3 14.8681V7.66062L7.41 12.0781C7.6193 12.2901 7.86862 12.4585 8.14349 12.5734C8.41837 12.6883 8.71333 12.7475 9.01125 12.7475C9.30917 12.7475 9.60413 12.6883 9.87901 12.5734C10.1539 12.4585 10.4032 12.2901 10.6125 12.0781C10.7499 11.9379 10.8269 11.7494 10.8269 11.5531C10.8269 11.3568 10.7499 11.1683 10.6125 11.0281C10.5427 10.9567 10.4592 10.8999 10.3671 10.8612C10.2751 10.8224 10.1762 10.8025 10.0763 10.8025C9.97634 10.8025 9.87744 10.8224 9.78535 10.8612C9.69327 10.8999 9.60985 10.9567 9.54 11.0281C9.3998 11.1655 9.21131 11.2425 9.015 11.2425C8.81869 11.2425 8.6302 11.1655 8.49 11.0281L4.0575 6.60312H7.5C7.69891 6.60312 7.88968 6.5241 8.03033 6.38345C8.17098 6.2428 8.25 6.05203 8.25 5.85312C8.25 5.65421 8.17098 5.46344 8.03033 5.32279C7.88968 5.18214 7.69891 5.10312 7.5 5.10312H3.75C3.15326 5.10312 2.58097 5.34017 2.15901 5.76213C1.73705 6.18408 1.5 6.75638 1.5 7.35312V14.8531C1.5 15.4499 1.73705 16.0222 2.15901 16.4441C2.58097 16.8661 3.15326 17.1031 3.75 17.1031H14.25C14.8467 17.1031 15.419 16.8661 15.841 16.4441C16.2629 16.0222 16.5 15.4499 16.5 14.8531V9.60312C16.5 9.40421 16.421 9.21344 16.2803 9.07279C16.1397 8.93214 15.9489 8.85312 15.75 8.85312V8.86812Z" fill="white"/>
</svg>
