<svg width="24" height="25" viewBox="0 0 24 25" fill="none" xmlns="http://www.w3.org/2000/svg">
<path d="M8.37242 5.88283C8.13389 6.13166 8 6.46827 8 6.81912C8 7.16998 8.13389 7.50658 8.37242 7.75541L12.9061 12.5232L8.37242 17.2246C8.13389 17.4734 8 17.81 8 18.1609C8 18.5117 8.13389 18.8483 8.37242 19.0971C8.49148 19.2216 8.63312 19.3204 8.78919 19.3879C8.94525 19.4553 9.11265 19.49 9.28171 19.49C9.45078 19.49 9.61818 19.4553 9.77424 19.3879C9.93031 19.3204 10.072 19.2216 10.191 19.0971L15.6212 13.4661C15.7412 13.3427 15.8365 13.1958 15.9015 13.0339C15.9665 12.8721 16 12.6985 16 12.5232C16 12.3479 15.9665 12.1743 15.9015 12.0124C15.8365 11.8506 15.7412 11.7037 15.6212 11.5803L10.191 5.88283C10.072 5.75836 9.93031 5.65955 9.77424 5.59213C9.61818 5.52471 9.45078 5.48999 9.28171 5.48999C9.11265 5.48999 8.94525 5.52471 8.78919 5.59213C8.63312 5.65955 8.49148 5.75836 8.37242 5.88283Z" fill="white"/>
</svg>
