<svg width="37" height="36" viewBox="0 0 37 36" fill="none" xmlns="http://www.w3.org/2000/svg">
<path d="M36.5 8.19C36.4798 7.41343 36.4197 6.63841 36.32 5.868C36.1856 5.19322 35.9616 4.53944 35.654 3.924C35.3323 3.25639 34.9002 2.64785 34.376 2.124C33.847 1.60597 33.2395 1.17466 32.576 0.846C31.9597 0.5444 31.306 0.326472 30.632 0.198C29.8689 0.0836989 29.0994 0.0175682 28.328 0H8.69C7.91343 0.0202255 7.13841 0.0803044 6.368 0.18C5.69322 0.314403 5.03944 0.538386 4.424 0.846C3.75639 1.16773 3.14785 1.59979 2.624 2.124C2.10597 2.65304 1.67466 3.26051 1.346 3.924C1.0444 4.54025 0.826472 5.19404 0.698 5.868C0.583699 6.63108 0.517568 7.4006 0.5 8.172C0.5 8.514 0.5 9 0.5 9.144V26.856C0.5 27.054 0.5 27.486 0.5 27.81C0.520226 28.5866 0.580304 29.3616 0.68 30.132C0.814403 30.8068 1.03839 31.4606 1.346 32.076C1.66773 32.7436 2.09979 33.3521 2.624 33.876C3.15304 34.394 3.76051 34.8253 4.424 35.154C5.04025 35.4556 5.69404 35.6735 6.368 35.802C7.13108 35.9163 7.9006 35.9824 8.672 36H28.31C29.0866 35.9798 29.8616 35.9197 30.632 35.82C31.3068 35.6856 31.9606 35.4616 32.576 35.154C33.2436 34.8323 33.8521 34.4002 34.376 33.876C34.894 33.347 35.3253 32.7395 35.654 32.076C35.9556 31.4597 36.1735 30.806 36.302 30.132C36.4163 29.3689 36.4824 28.5994 36.5 27.828C36.5 27.486 36.5 27.054 36.5 26.856V9.144C36.5 9 36.5 8.514 36.5 8.19ZM18.914 30.6C16.7523 30.5893 14.6284 30.0321 12.74 28.98L5.9 30.78L7.7 24.084C6.5392 22.1336 5.91797 19.9096 5.9 17.64C5.90717 15.0893 6.66896 12.5977 8.08945 10.4791C9.50993 8.36046 11.5256 6.70955 13.8825 5.73429C16.2394 4.75902 18.8323 4.50301 21.3344 4.99849C23.8366 5.49397 26.1362 6.71879 27.9436 8.51869C29.751 10.3186 30.9853 12.6131 31.4912 15.1131C31.9971 17.6132 31.7519 20.2071 30.7864 22.5681C29.821 24.929 28.1785 26.9515 26.0658 28.3808C23.9531 29.8101 21.4647 30.5822 18.914 30.6ZM18.914 6.966C17.0057 6.98784 15.1372 7.51497 13.4988 8.49373C11.8604 9.47249 10.5107 10.8679 9.58693 12.5379C8.66321 14.208 8.19851 16.0929 8.24015 18.0009C8.28179 19.909 8.82829 21.7719 9.824 23.4L10.076 23.814L8.996 27.756L13.1 26.64L13.496 26.874C15.1332 27.8384 16.9959 28.3537 18.896 28.368C21.7603 28.368 24.5074 27.2301 26.5328 25.2048C28.5581 23.1794 29.696 20.4323 29.696 17.568C29.696 14.7037 28.5581 11.9566 26.5328 9.93125C24.5074 7.90585 21.7603 6.768 18.896 6.768L18.914 6.966ZM25.214 22.302C24.9782 22.6952 24.6626 23.0346 24.2874 23.2982C23.9122 23.5617 23.4859 23.7436 23.036 23.832C22.3638 23.9549 21.6717 23.9116 21.02 23.706C20.4068 23.5143 19.8057 23.2859 19.22 23.022C16.9947 21.9054 15.097 20.2309 13.712 18.162C12.9594 17.2035 12.5027 16.0462 12.398 14.832C12.3873 14.3276 12.4827 13.8266 12.6781 13.3615C12.8734 12.8963 13.1643 12.4775 13.532 12.132C13.6403 12.0092 13.7731 11.9105 13.922 11.8423C14.0708 11.7741 14.2323 11.7379 14.396 11.736H14.9C15.098 11.736 15.368 11.736 15.62 12.294C15.872 12.852 16.538 14.526 16.628 14.688C16.6722 14.7744 16.6953 14.87 16.6953 14.967C16.6953 15.064 16.6722 15.1596 16.628 15.246C16.5484 15.4416 16.4391 15.6237 16.304 15.786C16.142 15.984 15.962 16.218 15.818 16.362C15.674 16.506 15.494 16.686 15.674 17.01C16.1638 17.8365 16.77 18.5883 17.474 19.242C18.2407 19.9194 19.1172 20.4612 20.066 20.844C20.39 21.006 20.588 20.988 20.768 20.844C20.948 20.7 21.578 19.908 21.794 19.584C22.01 19.26 22.226 19.314 22.514 19.422C22.802 19.53 24.404 20.304 24.728 20.466C25.052 20.628 25.25 20.7 25.34 20.844C25.4181 21.3151 25.3747 21.7983 25.214 22.248V22.302Z" fill="#063F5C"/>
</svg>
