<svg width="24" height="25" viewBox="0 0 24 25" fill="none" xmlns="http://www.w3.org/2000/svg">
<g clip-path="url(#clip0_0_3609)">
<path d="M23 6.00109C22.9876 5.52652 22.9509 5.0529 22.89 4.58209C22.8079 4.16973 22.671 3.77019 22.483 3.39409C22.2864 2.98611 22.0224 2.61422 21.702 2.29409C21.3787 1.97752 21.0075 1.71394 20.602 1.51309C20.2254 1.32878 19.8259 1.1956 19.414 1.11709C18.9477 1.04724 18.4774 1.00683 18.006 0.996094H6.005C5.53043 1.00845 5.05681 1.04517 4.586 1.10609C4.17364 1.18823 3.7741 1.32511 3.398 1.51309C2.99002 1.7097 2.61813 1.97374 2.298 2.29409C1.98142 2.6174 1.71785 2.98863 1.517 3.39409C1.33269 3.77069 1.19951 4.17023 1.121 4.58209C1.05115 5.04842 1.01074 5.51869 1 5.99009C1 6.19909 1 6.49609 1 6.58409V17.4081C1 17.5291 1 17.7931 1 17.9911C1.01236 18.4657 1.04907 18.9393 1.11 19.4101C1.19214 19.8225 1.32901 20.222 1.517 20.5981C1.71361 21.0061 1.97765 21.378 2.298 21.6981C2.6213 22.0147 2.99253 22.2782 3.398 22.4791C3.7746 22.6634 4.17413 22.7966 4.586 22.8751C5.05233 22.9449 5.52259 22.9854 5.994 22.9961H17.995C18.4696 22.9837 18.9432 22.947 19.414 22.8861C19.8264 22.804 20.2259 22.6671 20.602 22.4791C21.01 22.2825 21.3819 22.0184 21.702 21.6981C22.0186 21.3748 22.2822 21.0036 22.483 20.5981C22.6673 20.2215 22.8005 19.822 22.879 19.4101C22.9489 18.9438 22.9893 18.4735 23 18.0021C23 17.7931 23 17.5291 23 17.4081V6.58409C23 6.49609 23 6.19909 23 6.00109ZM12.253 19.6961C10.932 19.6896 9.63405 19.349 8.48 18.7061L4.3 19.8061L5.4 15.7141C4.69062 14.5222 4.31098 13.1631 4.3 11.7761C4.30438 10.2173 4.76992 8.69468 5.638 7.39997C6.50607 6.10526 7.73785 5.09638 9.1782 4.50038C10.6186 3.90438 12.2031 3.74793 13.7322 4.05073C15.2613 4.35352 16.6666 5.10202 17.7711 6.20196C18.8756 7.30189 19.6299 8.70407 19.9391 10.2319C20.2482 11.7597 20.0984 13.3449 19.5084 14.7877C18.9184 16.2305 17.9146 17.4665 16.6235 18.3399C15.3324 19.2134 13.8118 19.6852 12.253 19.6961ZM12.253 5.25309C11.0868 5.26644 9.94494 5.58858 8.94371 6.18671C7.94248 6.78483 7.11763 7.6376 6.55313 8.65817C5.98863 9.67874 5.70464 10.8307 5.73009 11.9967C5.75554 13.1627 6.08951 14.3011 6.698 15.2961L6.852 15.5491L6.192 17.9581L8.7 17.2761L8.942 17.4191C9.94253 18.0084 11.0808 18.3234 12.242 18.3321C13.9924 18.3321 15.6712 17.6367 16.9089 16.399C18.1466 15.1613 18.842 13.4825 18.842 11.7321C18.842 9.98167 18.1466 8.30293 16.9089 7.06519C15.6712 5.82745 13.9924 5.13209 12.242 5.13209L12.253 5.25309ZM16.103 14.6251C15.9589 14.8654 15.766 15.0728 15.5367 15.2339C15.3075 15.3949 15.0469 15.5061 14.772 15.5601C14.3612 15.6352 13.9383 15.6087 13.54 15.4831C13.1653 15.3659 12.798 15.2264 12.44 15.0651C11.0801 14.3827 9.92038 13.3594 9.074 12.0951C8.61407 11.5093 8.33501 10.8021 8.271 10.0601C8.26445 9.75186 8.32276 9.44569 8.44214 9.16144C8.56153 8.87719 8.73932 8.62121 8.964 8.41009C9.03018 8.33506 9.11137 8.27475 9.20232 8.23306C9.29327 8.19138 9.39196 8.16925 9.492 8.16809H9.8C9.921 8.16809 10.086 8.16809 10.24 8.50909C10.394 8.85009 10.801 9.87309 10.856 9.97209C10.883 10.0249 10.8971 10.0833 10.8971 10.1426C10.8971 10.2019 10.883 10.2603 10.856 10.3131C10.8074 10.4326 10.7406 10.5439 10.658 10.6431C10.559 10.7641 10.449 10.9071 10.361 10.9951C10.273 11.0831 10.163 11.1931 10.273 11.3911C10.5723 11.8962 10.9428 12.3556 11.373 12.7551C11.8415 13.1691 12.3772 13.5002 12.957 13.7341C13.155 13.8331 13.276 13.8221 13.386 13.7341C13.496 13.6461 13.881 13.1621 14.013 12.9641C14.145 12.7661 14.277 12.7991 14.453 12.8651C14.629 12.9311 15.608 13.4041 15.806 13.5031C16.004 13.6021 16.125 13.6461 16.18 13.7341C16.2277 14.022 16.2012 14.3173 16.103 14.5921V14.6251Z" fill="white"/>
</g>
<defs>
<clipPath id="clip0_0_3609">
<rect width="24" height="24" fill="white" transform="translate(0 0.328613)"/>
</clipPath>
</defs>
</svg>
