<svg width="92" height="73" viewBox="0 0 92 73" fill="none" xmlns="http://www.w3.org/2000/svg">
<g clip-path="url(#clip0_0_3571)">
<path d="M45.4056 25.1951C45.3645 25.1951 45.3234 25.1721 45.2776 25.1721L24.7164 18.7672C24.5473 18.7258 24.4238 18.5557 24.4238 18.3626C24.4238 18.1924 24.5518 18.0223 24.7392 17.9809L45.3005 12.422C45.3828 12.399 45.4468 12.399 45.5291 12.422L66.0903 18.8453C66.2777 18.8867 66.3829 19.0568 66.3829 19.227C66.3829 19.4155 66.2549 19.5672 66.0903 19.6086L45.5062 25.1675C45.4651 25.1675 45.4422 25.1905 45.4011 25.1905L45.4056 25.1951ZM26.298 18.4085L45.4331 24.3491L64.5224 19.2132L45.4102 13.2543L26.298 18.4085Z" fill="white"/>
<path d="M65.9896 19.6362C65.9485 19.6362 65.9073 19.6362 65.8616 19.6178L45.2775 13.2129C45.1084 13.1715 45.0078 12.9968 45.0078 12.8312V0.86741C45.0078 0.738668 45.0672 0.614524 45.1769 0.550153C45.2821 0.490379 45.4055 0.46739 45.5335 0.508771L66.0948 6.8907C66.2822 6.93208 66.3873 7.10221 66.3873 7.27233V19.2362C66.3873 19.3649 66.3233 19.489 66.2182 19.5534C66.1542 19.6178 66.0719 19.6362 65.9851 19.6362H65.9896ZM45.8078 12.5324L65.5919 18.6844V7.58959L45.8078 1.41916V12.537V12.5324Z" fill="white"/>
<path d="M45.4056 37.159C45.3645 37.159 45.3234 37.136 45.2776 37.136L24.7164 30.731C24.5473 30.6667 24.4238 30.5195 24.4238 30.3264C24.4238 30.1563 24.5518 29.9862 24.7392 29.9448L45.3005 24.3859C45.3828 24.3629 45.4468 24.3629 45.5291 24.3859L66.0903 30.7908C66.2777 30.8552 66.3829 31.0023 66.3829 31.1954C66.3829 31.3656 66.2549 31.5357 66.0903 31.5771L45.5062 37.136C45.4651 37.159 45.4422 37.159 45.4011 37.159H45.4056ZM26.298 30.3724L45.4331 36.3313L64.5224 31.154L45.4102 25.1951L26.298 30.3724Z" fill="white"/>
<path d="M45.4056 37.1588C45.3645 37.1588 45.3234 37.1358 45.2777 37.1358L24.7164 30.7309C24.5473 30.6666 24.4238 30.5194 24.4238 30.3263V6.42625C24.4238 6.29751 24.4878 6.17336 24.593 6.10899C24.6981 6.02623 24.8261 6.00324 24.9495 6.04922L45.5291 12.4541C45.6982 12.4955 45.8033 12.6656 45.8033 12.8358V36.7634C45.8033 36.8922 45.7393 36.9933 45.6571 37.0807C45.5748 37.1221 45.4879 37.1634 45.4056 37.1634V37.1588ZM25.2466 30.0366L45.0125 36.1841V13.1484L25.2466 6.978V30.0366Z" fill="white"/>
<path d="M45.4056 13.2544C45.3645 13.2544 45.3234 13.2314 45.2777 13.2314L24.7164 6.82647C24.5473 6.7621 24.4238 6.59198 24.4238 6.42185C24.4238 6.22874 24.5518 6.08161 24.7392 6.04022L45.3051 0.508911C45.3874 0.490519 45.4514 0.490519 45.5336 0.508911L66.0949 6.89084C66.2823 6.95521 66.3875 7.10235 66.3875 7.29546C66.3875 7.46558 66.2595 7.63571 66.0949 7.67709L45.5108 13.236C45.4696 13.236 45.4468 13.259 45.4056 13.259V13.2544ZM26.298 6.46783L45.4331 12.4038L64.5224 7.24948L45.4056 1.29056L26.2934 6.46783H26.298Z" fill="white"/>
<path d="M0.543945 66.3237H1.02849V72.2413H0.543945V66.3237Z" fill="white"/>
<path d="M6.65569 66.3237H7.07624V72.2413H6.7014L5.33461 67.7813L5.37575 69.3906V72.2413H4.91406V66.3237H5.25233L6.7014 70.9125L6.65569 68.8618V66.3237Z" fill="white"/>
<path d="M10.8154 68.0569C10.8154 67.4454 10.8794 67.0224 10.9846 66.7695C11.172 66.4292 11.4463 66.2407 11.844 66.2407C12.0954 66.2407 12.3056 66.3051 12.4336 66.4109C12.5799 66.4936 12.6668 66.6224 12.7079 66.7281C12.7719 66.9626 12.8359 67.1741 12.8359 67.3626C12.8588 67.5741 12.8588 67.8086 12.8588 68.0615V68.5489H12.3559V67.6385C12.3559 67.2983 12.3331 67.0454 12.2508 66.8982C12.1868 66.7511 12.0634 66.6637 11.8531 66.6637C11.6657 66.6637 11.5148 66.7695 11.4325 66.958C11.3503 67.1695 11.3045 67.5098 11.3045 67.9925V70.4248C11.3045 70.9766 11.3457 71.3766 11.4325 71.5881C11.4965 71.7996 11.6428 71.9054 11.8531 71.9054C12.0634 71.9054 12.1868 71.7996 12.2736 71.5881C12.3376 71.3536 12.3788 70.9766 12.3788 70.4248V69.6846H11.8759V69.2616H12.8633V72.241H12.5479L12.4839 71.9008C12.4016 72.0479 12.3148 72.1537 12.1914 72.218C12.0862 72.2824 11.9399 72.3008 11.7708 72.3008C11.4371 72.3008 11.204 72.1721 11.0348 71.8778C10.8886 71.5835 10.8246 71.1191 10.8246 70.4616V68.0523L10.8154 68.0569Z" fill="white"/>
<path d="M16.6118 66.3237H18.166V66.7054H17.1192V69.0319H18.1066V69.4319H17.1192V71.8642H18.166V72.2413H16.6118V66.3237Z" fill="white"/>
<path d="M23.4594 66.3237H23.9028V72.2413H23.5234L22.1566 67.7813L22.2023 69.3906V72.2413H21.7178V66.3237H22.0743L23.5234 70.9125L23.4594 68.8618V66.3237Z" fill="white"/>
<path d="M27.7656 66.3237H28.273V72.2413H27.7656V66.3237Z" fill="white"/>
<path d="M32.1357 66.3237H33.6899V66.7054H32.6386V69.0319H33.626V69.4319H32.6386V71.8642H33.6899V72.2413H32.1357V66.3237Z" fill="white"/>
<path d="M37.2599 66.3235H38.2473C38.6679 66.3235 38.9421 66.4062 39.0656 66.5763C39.1707 66.7051 39.2347 66.8706 39.253 67.0407C39.2941 67.2292 39.2941 67.5051 39.2941 67.8454C39.2941 68.204 39.253 68.5029 39.189 68.7098C39.1067 68.9443 38.9559 69.0684 38.7684 69.1328C38.8279 69.1558 38.8964 69.1742 38.9559 69.1972C38.997 69.2385 39.061 69.3029 39.1021 69.3857C39.2301 69.6386 39.2896 70.2731 39.2896 71.2892C39.2896 71.7122 39.2896 71.9421 39.3124 72.0065C39.3124 72.0709 39.3307 72.1536 39.3718 72.241H38.869C38.8279 72.1766 38.8096 72.0525 38.8096 71.8594V70.3145C38.8096 69.8914 38.7684 69.6386 38.7273 69.5328C38.6862 69.4041 38.5353 69.3627 38.2839 69.3627L37.7582 69.3213V72.2364H37.2554V66.3188L37.2599 66.3235ZM38.8142 67.7626C38.8142 67.4683 38.7913 67.2338 38.773 67.1051C38.7319 66.958 38.6907 66.8706 38.6267 66.8108C38.5673 66.7694 38.4576 66.7465 38.3113 66.7465H37.7445V68.9857H38.2702C38.4393 68.9857 38.5627 68.9627 38.6267 68.9029C38.6907 68.8385 38.7319 68.7558 38.7547 68.6086C38.7959 68.4799 38.8187 68.2086 38.8187 67.804V67.7626H38.8142Z" fill="white"/>
<path d="M42.9282 67.9741C42.9282 67.2569 43.0105 66.7925 43.2025 66.581C43.3716 66.3695 43.6413 66.2407 44.0207 66.2407C44.4001 66.2407 44.6516 66.3695 44.775 66.6224C44.8801 66.7695 44.9441 66.9626 44.967 67.1925C44.9853 67.404 45.0081 67.6799 45.0081 67.9741V70.5122C45.0081 71.018 44.967 71.3766 44.903 71.5881C44.8436 71.7996 44.775 71.9468 44.6927 72.0341C44.5464 72.2226 44.295 72.31 43.9796 72.31C43.4768 72.31 43.1796 72.0985 43.0562 71.6755C42.9739 71.3996 42.9282 71.0226 42.9282 70.5122V67.9741ZM44.5053 67.9282C44.5053 67.4638 44.4641 67.1235 44.4001 66.935C44.3407 66.7465 44.1899 66.6591 43.9796 66.6591C43.7693 66.6591 43.623 66.7649 43.559 66.9534C43.4768 67.1419 43.4311 67.4822 43.4311 67.9236V70.503C43.4311 71.0318 43.4539 71.3904 43.5133 71.5375C43.5545 71.6847 43.6185 71.7904 43.7053 71.8318C43.7648 71.8732 43.8516 71.8962 43.9567 71.8962C44.0847 71.8962 44.167 71.8732 44.2264 71.8318C44.2904 71.7904 44.3544 71.6847 44.4184 71.5375C44.4779 71.3904 44.5007 71.0502 44.5007 70.503V67.9236L44.5053 67.9282Z" fill="white"/>
<path d="M48.5188 67.2339C48.5599 66.9166 48.6468 66.6637 48.8113 66.4936C48.9576 66.3235 49.209 66.2407 49.5244 66.2407C49.8581 66.2407 50.0913 66.3235 50.2147 66.4936C50.2787 66.5764 50.3427 66.6821 50.3838 66.7695C50.4661 66.958 50.5118 67.381 50.5118 68.0569V68.3972H50.009V68.0385C50.009 67.5098 49.9907 67.1925 49.9496 67.0867C49.9267 66.981 49.8856 66.8982 49.8673 66.8339C49.785 66.7281 49.6753 66.6867 49.5107 66.6867C49.177 66.6867 49.0079 67.004 49.0079 67.6385C49.0079 67.85 49.0307 68.0201 49.0719 68.0799C49.113 68.1627 49.1313 68.227 49.1542 68.2684C49.1725 68.3098 49.3233 68.4799 49.593 68.7328L49.9084 69.0731C50.3884 69.5604 50.6215 70.1306 50.6215 70.7651C50.6215 71.3996 50.5392 71.8226 50.3473 72.0111C50.1598 72.2226 49.8856 72.3284 49.529 72.3284C48.985 72.3284 48.6651 71.9881 48.5828 71.3122C48.5645 71.1007 48.5416 70.8249 48.5416 70.4892V69.8777H49.0445V70.4892C49.0445 71.018 49.0856 71.3766 49.1496 71.5881C49.2319 71.7766 49.3782 71.8824 49.5884 71.8824C49.7987 71.8824 49.945 71.818 50.009 71.6939C50.0501 71.5651 50.0913 71.3996 50.0913 71.2065C50.1141 71.018 50.1141 70.8249 50.1141 70.6134C50.1141 70.1674 49.9221 69.7903 49.5884 69.4501L49.2547 69.1098C48.9393 68.8156 48.7519 68.5811 48.6468 68.3696C48.5416 68.1811 48.5005 67.9695 48.5005 67.758C48.5005 67.5465 48.5005 67.3764 48.5233 67.2293L48.5188 67.2339Z" fill="white"/>
<path d="M57.9033 68.0341C57.9033 67.3168 57.9856 66.8295 58.1776 66.595C58.365 66.3605 58.6164 66.2363 58.9547 66.2363C59.2701 66.2363 59.5215 66.3191 59.6495 66.4892C59.7547 66.618 59.8187 66.7237 59.8598 66.8479C59.9192 67.1237 59.9649 67.5237 59.9649 68.0755V68.5813H59.4621V68.0111C59.4621 67.5054 59.4438 67.1881 59.3798 67.018C59.3387 66.8479 59.2518 66.7421 59.1513 66.7007C59.1101 66.6593 59.0461 66.6593 58.9821 66.6593C58.7718 66.6593 58.6256 66.7651 58.5387 66.9766C58.4564 67.2111 58.4107 67.5467 58.4107 68.0111V70.3791C58.4107 70.9492 58.4519 71.3492 58.5159 71.5837C58.5753 71.7952 58.7261 71.901 58.9364 71.901C59.165 71.901 59.293 71.7952 59.357 71.5837C59.4392 71.3492 59.4621 70.9722 59.4621 70.4021V69.9147H59.9649V70.3791C59.9649 70.9078 59.9466 71.2895 59.8827 71.501C59.8232 71.7355 59.7547 71.901 59.6724 72.0067C59.5261 72.2182 59.293 72.324 58.9593 72.324C58.6256 72.324 58.3924 72.2182 58.2279 72.0067C58.0176 71.7538 57.9125 71.2021 57.9125 70.4021V68.0341H57.9033Z" fill="white"/>
<path d="M63.7041 66.3237H64.1841V72.2413H63.7041V66.3237Z" fill="white"/>
<path d="M69.7746 66.3237H70.2546L69.3083 72.2413H68.7826L67.7358 66.3237H68.2204L69.0341 71.1837L69.7746 66.3237Z" fill="white"/>
<path d="M73.8022 66.3237H74.2868V72.2413H73.8022V66.3237Z" fill="white"/>
<path d="M78.1719 66.3237H78.6564V71.8642H79.7032V72.2413H78.1719V66.3237Z" fill="white"/>
<path d="M83.0449 66.3237H84.5991V66.7054H83.5478V69.0319H84.5397V69.4319H83.5478V71.8642H84.5991V72.2413H83.0449V66.3237Z" fill="white"/>
<path d="M87.9408 67.2339C87.982 66.9166 88.0871 66.6637 88.2334 66.4936C88.3797 66.3235 88.6356 66.2407 88.9693 66.2407C89.2848 66.2407 89.5133 66.3235 89.6413 66.4936C89.7236 66.5764 89.7693 66.6821 89.8104 66.7695C89.8927 66.958 89.9384 67.381 89.9567 68.0569V68.3972H89.431V68.0385C89.431 67.5098 89.4082 67.1925 89.3899 67.0867C89.3488 66.981 89.3259 66.8982 89.2848 66.8339C89.2253 66.7281 89.0973 66.6867 88.9282 66.6867C88.5945 66.6867 88.4254 67.004 88.4254 67.6385C88.4254 67.85 88.4437 68.0201 88.4848 68.0799C88.5259 68.1627 88.5671 68.227 88.5899 68.2684C88.6082 68.3098 88.7362 68.4799 89.0105 68.7328L89.3259 69.0731C89.8104 69.5604 90.039 70.1306 90.039 70.7651C90.039 71.3996 89.9567 71.8226 89.7693 72.0111C89.6002 72.2226 89.3259 72.3284 88.9693 72.3284C88.4254 72.3284 88.1054 71.9881 88.0231 71.3122C87.982 71.1007 87.982 70.8249 87.982 70.4892V69.8777H88.4848V70.4892C88.4848 71.018 88.5077 71.3766 88.5899 71.5881C88.6494 71.7766 88.8002 71.8824 89.0105 71.8824C89.239 71.8824 89.367 71.818 89.431 71.6939C89.4905 71.5651 89.5133 71.3996 89.5362 71.2065V70.6134C89.5362 70.1674 89.367 69.7903 89.0105 69.4501L88.6768 69.1098C88.3842 68.8156 88.174 68.5811 88.0871 68.3696C87.982 68.1811 87.918 67.9695 87.918 67.758C87.918 67.5465 87.9363 67.3764 87.9363 67.2293L87.9408 67.2339Z" fill="white"/>
<path d="M8.75842 61.5279H0V45.6973H8.75842V47.3249H1.82848V52.4148H8.33787V54.0425H1.82848V59.8773H8.75842V61.5279Z" fill="white"/>
<path d="M75.7677 61.5279H67.0093V45.6973H75.7677V47.3249H68.8378V52.4148H75.3472V54.0425H68.8378V59.8773H75.7677V61.5279Z" fill="white"/>
<path d="M27.6194 61.5279H25.5395L16.9274 48.2353H16.8451C16.9731 49.7986 17.0325 51.2148 17.0325 52.5252V61.5279H15.332V45.6973H17.3891L25.9784 58.9301H26.0606C26.0378 58.7186 26.0195 58.1071 25.9555 57.0496C25.9144 55.992 25.8915 55.2334 25.9144 54.769V45.7019H27.6149V61.5325L27.6194 61.5279Z" fill="white"/>
<path d="M39.8839 61.5279H38.06V47.3249H33.0591V45.6973H44.8619V47.3249H39.8839V61.5279Z" fill="white"/>
<path d="M52.1527 54.9301V61.5236H50.3242V45.6929H54.6303C56.5639 45.6929 57.9901 46.0515 58.9135 46.7918C59.8369 47.5504 60.2986 48.6539 60.2986 50.1529C60.2986 52.2449 59.2289 53.6611 57.1307 54.4014L61.3911 61.5236H59.2289L55.4257 54.9301H52.1481H52.1527ZM52.1527 53.3484H54.6486C55.9514 53.3484 56.8976 53.0955 57.4827 52.5898C58.0953 52.061 58.3878 51.3024 58.3878 50.2632C58.3878 49.2241 58.0953 48.4654 57.4827 48.001C56.8519 47.5366 55.8874 47.3021 54.5206 47.3021H52.1481V53.3484H52.1527Z" fill="white"/>
<path d="M80.4714 60.3047L89.2344 47.4121V47.3432H81.221V45.6235H91.8811V46.8742L83.1638 59.7208V59.7898H91.9954V61.5094H80.4668V60.3093L80.4714 60.3047Z" fill="white"/>
</g>
<defs>
<clipPath id="clip0_0_3571">
<rect width="92" height="71.8427" fill="white" transform="translate(0 0.48584)"/>
</clipPath>
</defs>
</svg>
